<?xml version="1.0" encoding="iso-8859-1"?>
<svg version="1.1" id="Capa_1" xmlns="http://www.w3.org/2000/svg" xmlns:xlink="http://www.w3.org/1999/xlink" x="0px" y="0px" width="28" height="28" viewBox="0 0 28 28" fill="#ffffff" style="enable-background:new 0 0 28 28;" xml:space="preserve">
	<g stroke="#ffffff" stroke-width="1" stroke-linecap="round">
		<path d="M18.162 17.089a7.412 7.412 0 10-1.06 1.062l4.774 4.679a.75.75 0 101.05-1.071l-4.764-4.67zm-5.75 1.235a5.912 5.912 0 110-11.824 5.912 5.912 0 010 11.823z"></path>
	</g>
	<path d="M18.162 17.089a7.412 7.412 0 10-1.06 1.062l4.774 4.679a.75.75 0 101.05-1.071l-4.764-4.67zm-5.75 1.235a5.912 5.912 0 110-11.824 5.912 5.912 0 010 11.823z"></path>
</svg>
